<svg xmlns="http://www.w3.org/2000/svg" version="1.1" xmlns:xlink="http://www.w3.org/1999/xlink" xmlns:svgjs="http://svgjs.dev/svgjs" width="128" height="128" viewBox="0 0 128 128"><g transform="matrix(0.8046875,0,0,0.8046875,12.333870967741937,12.333870967741937)"><svg viewBox="0 0 155 155" data-background-color="#ffffff" preserveAspectRatio="xMidYMid meet" height="128" width="128" xmlns="http://www.w3.org/2000/svg" xmlns:xlink="http://www.w3.org/1999/xlink"><g id="tight-bounds" transform="matrix(1,0,0,1,0.25,0.25)"><svg viewBox="0 0 154.5 154.5" height="154.5" width="154.5"><g><svg></svg></g><g><svg viewBox="0 0 154.5 154.5" height="154.5" width="154.5"><g transform="matrix(1,0,0,1,53.6470968,59.095465145533296)"><svg viewBox="0 0 47.2058064 36.3090697089334" height="36.3090697089334" width="47.2058064"><g><svg viewBox="0 0 47.2058064 36.3090697089334" height="36.3090697089334" width="47.2058064"><g><svg viewBox="0 0 47.2058064 36.3090697089334" height="36.3090697089334" width="47.2058064"><g id="textblocktransform"><svg viewBox="0 0 47.2058064 36.3090697089334" height="36.3090697089334" width="47.2058064" id="textblock"><g><svg viewBox="0 0 47.2058064 36.3090697089334" height="36.3090697089334" width="47.2058064"><g><svg viewBox="0 0 47.2058064 36.3090697089334" height="36.3090697089334" width="47.2058064"><g><svg xmlns="http://www.w3.org/2000/svg" xmlns:xlink="http://www.w3.org/1999/xlink" version="1.1" x="0" y="0" viewBox="0 12.052365005634037 100.04043589109646 76.94763499436596" enable-background="new 0 0 100 100" xml:space="preserve" width="47.2058064" height="36.3090697089334" class="icon-icon-0" data-fill-palette-color="accent" id="icon-0"><path d="M82 87.352C82 88.262 81.263 89 80.353 89H1.647C0.738 89 0 88.262 0 87.352V29.648C0 28.738 0.738 28 1.647 28h78.705C81.263 28 82 28.738 82 29.648V87.352zM73 37.648C73 36.738 72.263 36 71.353 36H9.647C8.738 36 8 36.738 8 37.648v41.704C8 80.262 8.738 81 9.647 81h61.705C72.263 81 73 80.262 73 79.352V37.648z" fill="#0191da" data-fill-palette-color="accent"></path><g fill="#0191da" data-fill-palette-color="accent"><path d="M96.037 13.591c-0.061-0.905-0.851-1.595-1.756-1.535l-78.103 5.239c-0.904 0.061-1.595 0.667-1.534 1.573L15.001 24h18.906l52.705-3.354c0.903-0.061 1.693 0.722 1.755 1.626l2.757 41.152c0.061 0.905-0.355 1.716-1.259 1.776L86 65.503v8.259l12.64-0.867c0.903-0.06 1.456-0.849 1.396-1.754L96.037 13.591z" fill="#0191da" data-fill-palette-color="accent"></path></g><path d="M15.409 76.418c-0.906 0.001-1.125-0.522-0.485-1.164l10.036-10.096c0.639-0.643 1.843-0.875 2.675-0.516l2.629 1.138c0.832 0.358 2.183 0.337 3.002-0.052l5.786-2.738c0.819-0.389 2.041-1.202 2.715-1.807l9.495-8.518c0.675-0.605 1.786-0.613 2.469-0.018l4.108 3.588c0.684 0.596 1.881 0.707 2.661 0.245l6.153-3.675c0.78-0.461 1.347-0.096 1.347 0.81v21.013c0 0.905-0.67 1.648-1.576 1.651L15.409 76.418z" fill="#0191da" data-fill-palette-color="accent"></path><circle cx="25.297" cy="50.227" r="6.5" fill="#0191da" data-fill-palette-color="accent"></circle></svg></g></svg></g></svg></g></svg></g></svg></g></svg></g></svg></g><g><path d="M0 154.5v-154.5h154.5v154.5zM151.226 151.226v-147.952h-147.952v147.952z" fill="#000000" fill-rule="nonzero" stroke="none" stroke-width="1" stroke-linecap="butt" stroke-linejoin="miter" stroke-miterlimit="10" stroke-dasharray="" stroke-dashoffset="0" font-family="none" font-weight="none" font-size="none" text-anchor="none" style="mix-blend-mode: normal" data-fill-palette-color="tertiary"></path></g></svg></g><defs></defs></svg><rect width="154.5" height="154.5" fill="none" stroke="none" visibility="hidden"></rect></g></svg></g></svg>