<svg xmlns="http://www.w3.org/2000/svg" version="1.1" xmlns:xlink="http://www.w3.org/1999/xlink" xmlns:svgjs="http://svgjs.dev/svgjs" width="2000" height="608" viewBox="0 0 2000 608"><g transform="matrix(1,0,0,1,0.21333333333336668,-0.7322399999999902)"><svg viewBox="0 0 375 114" data-background-color="#ffffff" preserveAspectRatio="xMidYMid meet" height="608" width="2000" xmlns="http://www.w3.org/2000/svg" xmlns:xlink="http://www.w3.org/1999/xlink"><g id="tight-bounds" transform="matrix(1,0,0,1,-0.03976000000000113,0.13729499999999462)"><svg viewBox="0 0 375.07953 113.72541000000001" height="113.72541000000001" width="375.07953"><g><svg></svg></g><g><svg viewBox="0 0 375.07953 113.72541000000001" height="113.72541000000001" width="375.07953"><g transform="matrix(1,0,0,1,-10.22024,-69.61272)"><path d="M10.22 177.587v-107.974h375.08v107.974l-150.239 0v-2.598h147.64v-102.778h-369.882v102.778h30.657l0 2.598z" fill="#000000" fill-rule="nonzero" stroke="none" stroke-width="1" stroke-linecap="butt" stroke-linejoin="miter" stroke-miterlimit="10" stroke-dasharray="" stroke-dashoffset="0" font-family="none" font-weight="none" font-size="none" text-anchor="none" style="mix-blend-mode: normal" data-fill-palette-color="tertiary"></path><g><path transform="translate(50.97167,179.43384) scale(0.30033,0.30033)" d="M37.7-33v0l0.7 1.95-4.4 1.05c-0.233 3.733-0.423 7.223-0.57 10.47-0.153 3.253-0.313 6.113-0.48 8.58v0c-0.133 2.1-0.607 3.867-1.42 5.3-0.82 1.433-1.853 2.583-3.1 3.45-1.253 0.867-2.63 1.5-4.13 1.9-1.5 0.4-3 0.6-4.5 0.6v0c-2.433 0-4.65-0.333-6.65-1-2-0.667-3.623-1.76-4.87-3.28-1.253-1.513-2.03-3.57-2.33-6.17v0c-0.167-1.567-0.267-3.4-0.3-5.5-0.033-2.1-0.05-4.36-0.05-6.78 0-2.413-0.033-4.853-0.1-7.32v0l-4.5-1.3 0.6-1.95c1.033 0.033 2.243 0.073 3.63 0.12 1.38 0.053 2.72 0.08 4.02 0.08v0c1.633 0 3.1-0.027 4.4-0.08 1.3-0.047 2.383-0.087 3.25-0.12v0l0.6 1.95-4.45 1.3c-0.1 2.6-0.15 5.133-0.15 7.6v0c0 2.5 0.043 4.74 0.13 6.72 0.08 1.987 0.153 3.497 0.22 4.53v0c0.233 2.533 0.993 4.467 2.28 5.8 1.28 1.333 3.087 2 5.42 2v0c2.467 0 4.427-0.627 5.88-1.88 1.447-1.247 2.32-3.237 2.62-5.97v0c0.067-0.733 0.117-1.71 0.15-2.93 0.033-1.213 0.05-2.52 0.05-3.92v0c0-1.767-0.023-3.727-0.07-5.88-0.053-2.147-0.163-4.253-0.33-6.32v0l-4.5-1.05 0.7-1.95c1 0.067 2.033 0.117 3.1 0.15 1.067 0.033 2.033 0.05 2.9 0.05v0c1.067 0 2.217-0.027 3.45-0.08 1.233-0.047 2.167-0.087 2.8-0.12zM59.6-21.75v0c1.9 0 3.46 0.717 4.68 2.15 1.213 1.433 1.887 3.283 2.02 5.55v0c0.033 0.6 0.033 1.54 0 2.82-0.033 1.287-0.057 2.68-0.07 4.18-0.02 1.5-0.03 2.883-0.03 4.15v0l3.75 1.05-0.8 1.85c-0.867-0.067-1.85-0.11-2.95-0.13-1.1-0.013-2.183-0.02-3.25-0.02v0c-1.3 0-2.467 0.017-3.5 0.05-1.033 0.033-1.983 0.067-2.85 0.1v0l-0.65-1.85 3.65-1.05c0.033-1.133 0.067-2.093 0.1-2.88 0.033-0.78 0.06-1.563 0.08-2.35 0.013-0.78 0.003-1.703-0.03-2.77v0c-0.033-2.033-0.4-3.517-1.1-4.45-0.7-0.933-1.733-1.55-3.1-1.85v0c-1.467 0.967-2.533 2.15-3.2 3.55-0.667 1.4-0.983 2.733-0.95 4v0l-1.85-2.2c0.233-1.9 0.81-3.6 1.73-5.1 0.913-1.5 2.087-2.677 3.52-3.53 1.433-0.847 3.033-1.27 4.8-1.27zM51.45-22v0c0 1.1 0 1.99 0 2.67 0 0.687-0.007 1.37-0.02 2.05-0.02 0.687-0.063 1.597-0.13 2.73v0l0.2 11.65 3.65 1.05-0.65 1.85c-1.133-0.067-2.2-0.11-3.2-0.13-1-0.013-2.1-0.02-3.3-0.02v0c-1.3 0-2.423 0.017-3.37 0.05-0.953 0.033-1.913 0.067-2.88 0.1v0l-0.8-1.85 3.75-1.05c0-1.067 0.043-2.327 0.13-3.78 0.08-1.447 0.12-2.82 0.12-4.12v0c0-0.967-0.007-1.777-0.02-2.43-0.02-0.647-0.063-1.33-0.13-2.05-0.067-0.713-0.167-1.653-0.3-2.82v0l-3.9-0.95-0.6-1.9c1.967-0.1 3.827-0.243 5.58-0.43 1.747-0.18 3.703-0.387 5.87-0.62zM82.15-37.25v0c-0.033 5.667-0.04 11.44-0.02 17.32 0.013 5.887 0.07 11.563 0.17 17.03v0l3.95 1.05-0.95 1.85c-0.6-0.033-1.157-0.06-1.67-0.08-0.52-0.013-1.137-0.03-1.85-0.05-0.72-0.013-1.697-0.02-2.93-0.02v0c-1.1 0-2.007 0.007-2.72 0.02-0.72 0.02-1.363 0.037-1.93 0.05-0.567 0.02-1.2 0.047-1.9 0.08v0l-0.95-1.85 3.95-1.05c0.067-3.567 0.11-7.227 0.13-10.98 0.013-3.747-0.003-7.33-0.05-10.75-0.053-3.413-0.147-6.403-0.28-8.97v0l-4.3-0.7-0.5-1.95c0.767-0.067 1.8-0.133 3.1-0.2 1.3-0.067 2.727-0.167 4.28-0.3 1.547-0.133 3.037-0.3 4.47-0.5zM98.15-21.85v0c1.667 0 3.21 0.367 4.63 1.1 1.413 0.733 2.547 1.84 3.4 3.32 0.847 1.487 1.27 3.347 1.27 5.58v0c-0.733 0.133-1.7 0.25-2.9 0.35-1.2 0.1-2.517 0.173-3.95 0.22-1.433 0.053-2.867 0.08-4.3 0.08v0c-1.067 0-1.983-0.017-2.75-0.05-0.767-0.033-1.283-0.067-1.55-0.1v0-2.4c0.367 0 0.927 0 1.68 0 0.747 0 1.587-0.017 2.52-0.05 0.933-0.033 1.843-0.083 2.73-0.15 0.88-0.067 1.62-0.15 2.22-0.25v0c-0.033-0.7-0.223-1.407-0.57-2.12-0.353-0.72-0.88-1.33-1.58-1.83-0.7-0.5-1.6-0.75-2.7-0.75v0c-0.667 0.633-1.2 1.507-1.6 2.62-0.4 1.12-0.6 2.413-0.6 3.88v0c0 3 0.627 5.207 1.88 6.62 1.247 1.42 2.787 2.13 4.62 2.13v0c1.867 0 3.833-0.667 5.9-2v0l1.1 2.3c-1.433 1.3-2.967 2.233-4.6 2.8-1.633 0.567-3.25 0.85-4.85 0.85v0c-1.867 0-3.607-0.41-5.22-1.23-1.62-0.813-2.92-2.037-3.9-3.67-0.987-1.633-1.48-3.667-1.48-6.1v0c0-2.467 0.51-4.527 1.53-6.18 1.013-1.647 2.33-2.887 3.95-3.72 1.613-0.833 3.32-1.25 5.12-1.25zM122.2-21.8v0c1.767 0 3.3 0.54 4.6 1.62 1.3 1.087 1.95 2.73 1.95 4.93v0c0 1.433-0.023 2.633-0.07 3.6-0.053 0.967-0.103 1.823-0.15 2.57-0.053 0.753-0.08 1.53-0.08 2.33v0c0 0.933 0.06 1.59 0.18 1.97 0.113 0.387 0.437 0.58 0.97 0.58v0c0.467 0 1.167-0.217 2.1-0.65v0l0.9 2.2c-1.2 0.833-2.35 1.523-3.45 2.07-1.1 0.553-2.267 0.83-3.5 0.83v0c-1.033 0-1.933-0.41-2.7-1.23-0.767-0.813-1.15-2.103-1.15-3.87v0c0-1.633 0.077-3.243 0.23-4.83 0.147-1.58 0.22-2.987 0.22-4.22v0c0-1.033-0.15-1.867-0.45-2.5-0.3-0.633-0.8-1.067-1.5-1.3v0c-1.533 0.067-3 0.35-4.4 0.85-1.4 0.5-2.833 1.133-4.3 1.9v0l-1.3-2.15c1.9-1.4 3.827-2.533 5.78-3.4 1.947-0.867 3.987-1.3 6.12-1.3zM125.75-13.95v0l-3 4.15c-0.733 0.167-1.383 0.333-1.95 0.5-0.567 0.167-1.083 0.3-1.55 0.4v0c-1.133 0.233-1.917 0.523-2.35 0.87-0.433 0.353-0.65 0.963-0.65 1.83v0c0 0.7 0.183 1.25 0.55 1.65 0.367 0.4 0.867 0.6 1.5 0.6v0c0.767 0 1.743-0.36 2.93-1.08 1.18-0.713 2.187-1.62 3.02-2.72v0l0.95 2.05c-0.533 0.667-1.29 1.483-2.27 2.45-0.987 0.967-2.163 1.823-3.53 2.57-1.367 0.753-2.867 1.13-4.5 1.13v0c-0.833 0-1.64-0.227-2.42-0.68-0.787-0.447-1.437-1.12-1.95-2.02-0.52-0.9-0.78-2.017-0.78-3.35v0c0-1.4 0.427-2.493 1.28-3.28 0.847-0.78 2.003-1.387 3.47-1.82 1.467-0.433 3.083-0.8 4.85-1.1v0c1.2-0.2 2.317-0.46 3.35-0.78 1.033-0.313 2.05-0.77 3.05-1.37zM134.5-1.3v0c0.267-1.267 0.493-2.327 0.68-3.18 0.18-0.847 0.337-1.77 0.47-2.77v0h2.5l0.8 3.9c0.433 0.367 0.95 0.65 1.55 0.85 0.6 0.2 1.2 0.3 1.8 0.3v0c0.833 0 1.577-0.2 2.23-0.6 0.647-0.4 0.97-1.017 0.97-1.85v0c0-0.7-0.257-1.277-0.77-1.73-0.52-0.447-1.18-0.847-1.98-1.2-0.8-0.347-1.65-0.697-2.55-1.05-0.9-0.347-1.75-0.787-2.55-1.32-0.8-0.533-1.457-1.2-1.97-2-0.52-0.8-0.78-1.817-0.78-3.05v0c0-1.7 0.417-3.043 1.25-4.03 0.833-0.98 1.927-1.687 3.28-2.12 1.347-0.433 2.77-0.65 4.27-0.65v0c1.167 0 2.383 0.133 3.65 0.4 1.267 0.267 2.417 0.65 3.45 1.15v0c-0.267 1.167-0.507 2.2-0.72 3.1-0.22 0.9-0.413 1.783-0.58 2.65v0l-2.6-0.05-0.65-3.4c-0.6-0.8-1.583-1.2-2.95-1.2v0c-0.733 0-1.407 0.167-2.02 0.5-0.62 0.333-0.93 0.883-0.93 1.65v0c0 0.733 0.267 1.323 0.8 1.77 0.533 0.453 1.227 0.847 2.08 1.18 0.847 0.333 1.753 0.69 2.72 1.07 0.967 0.387 1.877 0.863 2.73 1.43 0.847 0.567 1.537 1.29 2.07 2.17 0.533 0.887 0.8 2.013 0.8 3.38v0c0 1.6-0.433 2.873-1.3 3.82-0.867 0.953-2.017 1.637-3.45 2.05-1.433 0.42-2.983 0.63-4.65 0.63v0c-1.267 0-2.55-0.133-3.85-0.4-1.3-0.267-2.567-0.733-3.8-1.4zM164.15-37.25v0c0 3.367 0 6.533 0 9.5 0 2.967-0.007 5.583-0.02 7.85-0.02 2.267-0.047 4.05-0.08 5.35v0l0.15 11.65 3.7 1.05-0.7 1.85c-1.1-0.067-2.19-0.11-3.27-0.13-1.087-0.013-2.297-0.02-3.63-0.02v0c-1.3 0-2.517 0.017-3.65 0.05-1.133 0.033-2.183 0.067-3.15 0.1v0l-0.85-1.85 4.35-1.05c0.1-2.167 0.177-4.55 0.23-7.15 0.047-2.6 0.07-5.217 0.07-7.85v0c0-2.967-0.04-5.733-0.12-8.3-0.087-2.567-0.23-5.05-0.43-7.45v0l-3.9-0.65-0.55-2.05c1.667-0.033 3.517-0.133 5.55-0.3 2.033-0.167 4.133-0.367 6.3-0.6zM172.55-21.75v0c2.067 0 3.71 0.717 4.93 2.15 1.213 1.433 1.887 3.283 2.02 5.55v0c0.067 0.6 0.083 1.54 0.05 2.82-0.033 1.287-0.057 2.68-0.07 4.18-0.02 1.5-0.03 2.883-0.03 4.15v0l3.7 1.05-0.75 1.85c-1.8-0.1-3.967-0.15-6.5-0.15v0c-1.267 0-2.417 0.017-3.45 0.05-1.033 0.033-1.983 0.067-2.85 0.1v0l-0.7-1.85 3.65-1.05c0.067-1.133 0.117-2.093 0.15-2.88 0.033-0.78 0.06-1.563 0.08-2.35 0.013-0.78 0.003-1.703-0.03-2.77v0c-0.033-2.333-0.44-3.933-1.22-4.8-0.787-0.867-1.963-1.3-3.53-1.3v0c-1.467 0.967-2.49 2.117-3.07 3.45-0.587 1.333-0.863 2.633-0.83 3.9v0l-1.8-2.2c0.233-1.9 0.827-3.6 1.78-5.1 0.947-1.5 2.153-2.677 3.62-3.53 1.467-0.847 3.083-1.27 4.85-1.27zM208.35-24.05l4.25-9.15c1.967 5.5 4.077 10.807 6.33 15.92 2.247 5.12 4.32 9.897 6.22 14.33v0l3.9 1.05-0.65 1.9c-1.033-0.067-2.19-0.11-3.47-0.13-1.287-0.013-2.447-0.02-3.48-0.02v0c-0.6 0-1.39 0.007-2.37 0.02-0.987 0.02-1.963 0.037-2.93 0.05-0.967 0.02-1.75 0.047-2.35 0.08v0l-0.7-1.9 3.9-1.05c-1-2.567-2.257-5.693-3.77-9.38-1.52-3.68-3.147-7.587-4.88-11.72zM210.05-33.2h2.55c-0.233 0.6-0.457 1.15-0.67 1.65-0.22 0.5-0.447 1.1-0.68 1.8-0.233 0.7-0.483 1.65-0.75 2.85v0c-0.633 1.733-1.34 3.673-2.12 5.82-0.787 2.153-1.59 4.337-2.41 6.55-0.813 2.22-1.553 4.337-2.22 6.35-0.667 2.02-1.183 3.763-1.55 5.23v0l3.7 1.05-0.65 1.9c-2.133-0.1-4.1-0.15-5.9-0.15v0c-1.667 0-3.4 0.05-5.2 0.15v0l-0.65-1.9 3.7-1.05c0.633-1.167 1.377-2.643 2.23-4.43 0.847-1.78 1.747-3.753 2.7-5.92 0.947-2.167 1.903-4.417 2.87-6.75 0.967-2.333 1.883-4.627 2.75-6.88 0.867-2.247 1.633-4.337 2.3-6.27zM217.25-11.25v0 3.9c-1.433-0.167-2.79-0.267-4.07-0.3-1.287-0.033-2.463-0.05-3.53-0.05v0c-1.133 0-2.24 0.017-3.32 0.05-1.087 0.033-2.28 0.133-3.58 0.3v0-3.85c1.3 0.167 2.493 0.283 3.58 0.35 1.08 0.067 2.187 0.1 3.32 0.1v0c1.067 0 2.243-0.033 3.53-0.1 1.28-0.067 2.637-0.2 4.07-0.4zM246.65-33v0l0.65 1.95-4.55 1.2c0 2.833-0.01 5.333-0.03 7.5-0.013 2.167-0.02 4.207-0.02 6.12 0 1.92 0 3.93 0 6.03 0 2.1 0.017 4.517 0.05 7.25v0l4.55 1.05-0.65 1.9c-1.8-0.1-4.333-0.15-7.6-0.15v0c-1.533 0-2.95 0.017-4.25 0.05-1.3 0.033-2.467 0.067-3.5 0.1v0l-0.65-1.9 4.6-1.05c0.067-2.7 0.127-5.1 0.18-7.2 0.047-2.1 0.07-4.11 0.07-6.03 0-1.913-0.017-3.963-0.05-6.15-0.033-2.18-0.1-4.687-0.2-7.52v0l-4.6-1.2 0.65-1.95c1.3 0.067 2.567 0.117 3.8 0.15 1.233 0.033 2.617 0.05 4.15 0.05v0c1.367 0 2.717-0.027 4.05-0.08 1.333-0.047 2.45-0.087 3.35-0.12zM270.75-21.75v0c0.067 1.2 0.143 2.283 0.23 3.25 0.08 0.967 0.137 1.783 0.17 2.45v0c-0.033 1.067-0.05 2.117-0.05 3.15 0 1.033 0 2.133 0 3.3v0c0 1.133 0 2.29 0 3.47 0 1.187 0.017 2.503 0.05 3.95 0.033 1.453 0.067 3.157 0.1 5.11 0.033 1.947 0.067 4.253 0.1 6.92v0l5 1.2-0.7 1.95c-0.867-0.067-1.967-0.117-3.3-0.15-1.333-0.033-2.733-0.05-4.2-0.05v0c-1.633 0-2.967 0.017-4 0.05-1.033 0.033-2.033 0.083-3 0.15v0l-0.75-1.95 3.95-1c0.067-0.667 0.11-1.6 0.13-2.8 0.013-1.2 0.03-2.49 0.05-3.87 0.013-1.387 0.02-2.673 0.02-3.86 0-1.18 0-2.07 0-2.67v0c0-1.533-0.007-3-0.02-4.4-0.02-1.4-0.053-2.933-0.1-4.6-0.053-1.667-0.147-3.667-0.28-6v0l-4.2-0.75-0.55-2.05c0.567-0.033 1.333-0.067 2.3-0.1 0.967-0.033 2-0.077 3.1-0.13 1.1-0.047 2.177-0.12 3.23-0.22 1.047-0.1 1.953-0.217 2.72-0.35zM278.05-21.8v0c1.9 0 3.49 0.507 4.77 1.52 1.287 1.02 2.247 2.34 2.88 3.96 0.633 1.613 0.95 3.32 0.95 5.12v0c0 1.9-0.367 3.723-1.1 5.47-0.733 1.753-1.833 3.187-3.3 4.3-1.467 1.12-3.317 1.68-5.55 1.68v0c-1.833 0-3.44-0.517-4.82-1.55-1.387-1.033-2.58-2.35-3.58-3.95v0l1.05-2.1c0.5 1.067 1.31 2.017 2.43 2.85 1.113 0.833 2.32 1.25 3.62 1.25v0c1 0 1.833-0.343 2.5-1.03 0.667-0.68 1.167-1.57 1.5-2.67 0.333-1.1 0.5-2.25 0.5-3.45v0c0-1.2-0.167-2.377-0.5-3.53-0.333-1.147-0.85-2.12-1.55-2.92-0.7-0.8-1.6-1.267-2.7-1.4v0c-0.467 0.1-1.023 0.5-1.67 1.2-0.653 0.7-1.213 1.567-1.68 2.6-0.467 1.033-0.7 2.117-0.7 3.25v0l-1.4-3.35c0.3-1.6 0.877-2.933 1.73-4 0.847-1.067 1.853-1.877 3.02-2.43 1.167-0.547 2.367-0.82 3.6-0.82zM300.75-21.7v0c2.467 0 4.527 0.517 6.18 1.55 1.647 1.033 2.88 2.383 3.7 4.05 0.813 1.667 1.22 3.467 1.22 5.4v0c0 1.967-0.417 3.807-1.25 5.52-0.833 1.72-2.083 3.097-3.75 4.13-1.667 1.033-3.75 1.55-6.25 1.55v0c-2.5 0-4.6-0.523-6.3-1.57-1.7-1.053-2.983-2.447-3.85-4.18-0.867-1.733-1.3-3.583-1.3-5.55v0c0-1.933 0.427-3.727 1.28-5.38 0.847-1.647 2.13-2.98 3.85-4 1.713-1.013 3.87-1.52 6.47-1.52zM296.15-11.85v0c0 1.667 0.193 3.25 0.58 4.75 0.38 1.5 0.953 2.717 1.72 3.65 0.767 0.933 1.683 1.4 2.75 1.4v0c1.267 0 2.21-0.693 2.83-2.08 0.613-1.38 0.92-3.103 0.92-5.17v0c0-1.667-0.19-3.243-0.57-4.73-0.387-1.48-0.953-2.697-1.7-3.65-0.753-0.947-1.68-1.42-2.78-1.42v0c-1.267 0-2.207 0.69-2.82 2.07-0.62 1.387-0.93 3.113-0.93 5.18zM327.7-20.95v0l0.75 1.9-3.55 1.05c0.4 1.233 0.76 2.323 1.08 3.27 0.313 0.953 0.637 1.853 0.97 2.7 0.333 0.853 0.7 1.77 1.1 2.75 0.4 0.987 0.9 2.13 1.5 3.43v0c0 0.333-0.167 0.84-0.5 1.52-0.333 0.687-0.733 1.397-1.2 2.13-0.467 0.733-0.923 1.357-1.37 1.87-0.453 0.52-0.813 0.78-1.08 0.78v0c-0.967-2.467-1.867-4.693-2.7-6.68-0.833-1.98-1.673-3.913-2.52-5.8-0.853-1.88-1.78-3.87-2.78-5.97v0l-3.8-1.05 0.8-1.9c1 0.033 2 0.067 3 0.1 1 0.033 2.067 0.05 3.2 0.05v0c2.933 0 5.3-0.05 7.1-0.15zM332.65-21.2v0l2.7 0.05-0.45 5.3c-1.167 2.633-2.3 5.34-3.4 8.12-1.1 2.787-2.15 5.513-3.15 8.18v0h-2.95c0.7-1.567 1.4-3.293 2.1-5.18 0.7-1.88 1.377-3.803 2.03-5.77 0.647-1.967 1.247-3.867 1.8-5.7 0.547-1.833 0.987-3.5 1.32-5zM331.4-13.75l3.95-7.4c0.867 2.3 1.633 4.307 2.3 6.02 0.667 1.72 1.327 3.37 1.98 4.95 0.647 1.587 1.37 3.347 2.17 5.28v0c0 0.333-0.167 0.8-0.5 1.4-0.333 0.6-0.75 1.2-1.25 1.8-0.5 0.6-0.99 1.107-1.47 1.52-0.487 0.42-0.88 0.63-1.18 0.63v0c-0.767-2.067-1.44-3.867-2.02-5.4-0.587-1.533-1.18-2.983-1.78-4.35-0.6-1.367-1.333-2.85-2.2-4.45zM351.45-20.95v0l0.85 1.9-4.1 1.05c-1 2.233-1.94 4.34-2.82 6.32-0.887 1.987-1.737 3.953-2.55 5.9-0.82 1.953-1.663 4.03-2.53 6.23v0h-2.9c1.167-2.667 2.35-5.583 3.55-8.75 1.2-3.167 2.167-6.4 2.9-9.7v0l-4-1.05 0.75-1.9c2.067 0.1 3.95 0.15 5.65 0.15v0c1.133 0 2.06-0.017 2.78-0.05 0.713-0.033 1.52-0.067 2.42-0.1zM364.45-21.85v0c1.667 0 3.207 0.367 4.62 1.1 1.42 0.733 2.557 1.84 3.41 3.32 0.847 1.487 1.27 3.347 1.27 5.58v0c-0.733 0.133-1.7 0.25-2.9 0.35-1.2 0.1-2.517 0.173-3.95 0.22-1.433 0.053-2.867 0.08-4.3 0.08v0c-1.067 0-1.983-0.017-2.75-0.05-0.767-0.033-1.283-0.067-1.55-0.1v0-2.4c0.367 0 0.927 0 1.68 0 0.747 0 1.587-0.017 2.52-0.05 0.933-0.033 1.843-0.083 2.73-0.15 0.88-0.067 1.62-0.15 2.22-0.25v0c-0.033-0.7-0.223-1.407-0.57-2.12-0.353-0.72-0.88-1.33-1.58-1.83-0.7-0.5-1.6-0.75-2.7-0.75v0c-0.667 0.633-1.2 1.507-1.6 2.62-0.4 1.12-0.6 2.413-0.6 3.88v0c0 3 0.627 5.207 1.88 6.62 1.247 1.42 2.787 2.13 4.62 2.13v0c1.867 0 3.833-0.667 5.9-2v0l1.1 2.3c-1.433 1.3-2.967 2.233-4.6 2.8-1.633 0.567-3.25 0.85-4.85 0.85v0c-1.867 0-3.607-0.41-5.22-1.23-1.62-0.813-2.923-2.037-3.91-3.67-0.98-1.633-1.47-3.667-1.47-6.1v0c0-2.467 0.51-4.527 1.53-6.18 1.013-1.647 2.327-2.887 3.94-3.72 1.62-0.833 3.33-1.25 5.13-1.25zM386.2-21.7v0c0.033 0.767 0.083 1.667 0.15 2.7 0.067 1.033 0.133 1.973 0.2 2.82 0.067 0.853 0.1 1.43 0.1 1.73v0l0.35 11.35 4.95 1.25-0.75 1.85c-0.567-0.033-1.317-0.06-2.25-0.08-0.933-0.013-1.9-0.03-2.9-0.05-1-0.013-1.9-0.02-2.7-0.02v0c-1.033 0-2.15 0.017-3.35 0.05-1.2 0.033-2.3 0.067-3.3 0.1v0l-0.75-1.85 4.05-1.05c0-1.5 0-2.843 0-4.03 0-1.18 0-2.47 0-3.87v0c0-0.767-0.007-1.477-0.02-2.13-0.02-0.647-0.047-1.38-0.08-2.2-0.033-0.813-0.1-1.82-0.2-3.02v0l-3.4-0.55-0.7-2.1c0.767-0.033 1.793-0.083 3.08-0.15 1.28-0.067 2.603-0.167 3.97-0.3 1.367-0.133 2.55-0.283 3.55-0.45zM392.9-21.8v0c0.933 0 1.8 0.173 2.6 0.52 0.8 0.353 1.567 0.913 2.3 1.68v0c-0.2 1-0.383 1.867-0.55 2.6-0.167 0.733-0.357 1.457-0.57 2.17-0.22 0.72-0.48 1.597-0.78 2.63v0h-2.8c-0.233-1.233-0.577-2.31-1.03-3.23-0.447-0.913-1.053-1.537-1.82-1.87v0c-0.833 0.533-1.623 1.523-2.37 2.97-0.753 1.453-1.13 3.38-1.13 5.78v0l-1.95-2.9c0.267-1.867 0.783-3.583 1.55-5.15 0.767-1.567 1.71-2.827 2.83-3.78 1.113-0.947 2.353-1.42 3.72-1.42zM410.55-21.85v0c1.667 0 3.21 0.367 4.63 1.1 1.413 0.733 2.547 1.84 3.4 3.32 0.847 1.487 1.27 3.347 1.27 5.58v0c-0.733 0.133-1.7 0.25-2.9 0.35-1.2 0.1-2.517 0.173-3.95 0.22-1.433 0.053-2.867 0.08-4.3 0.08v0c-1.067 0-1.983-0.017-2.75-0.05-0.767-0.033-1.283-0.067-1.55-0.1v0-2.4c0.367 0 0.927 0 1.68 0 0.747 0 1.587-0.017 2.52-0.05 0.933-0.033 1.843-0.083 2.73-0.15 0.88-0.067 1.62-0.15 2.22-0.25v0c-0.033-0.7-0.223-1.407-0.57-2.12-0.353-0.72-0.88-1.33-1.58-1.83-0.7-0.5-1.6-0.75-2.7-0.75v0c-0.667 0.633-1.2 1.507-1.6 2.62-0.4 1.12-0.6 2.413-0.6 3.88v0c0 3 0.627 5.207 1.88 6.62 1.247 1.42 2.787 2.13 4.62 2.13v0c1.867 0 3.833-0.667 5.9-2v0l1.1 2.3c-1.433 1.3-2.967 2.233-4.6 2.8-1.633 0.567-3.25 0.85-4.85 0.85v0c-1.867 0-3.607-0.41-5.22-1.23-1.62-0.813-2.92-2.037-3.9-3.67-0.987-1.633-1.48-3.667-1.48-6.1v0c0-2.467 0.51-4.527 1.53-6.18 1.013-1.647 2.33-2.887 3.95-3.72 1.613-0.833 3.32-1.25 5.12-1.25zM444.2-37.35v0c0 2.133-0.007 4.467-0.02 7-0.02 2.533-0.03 5.417-0.03 8.65v0c0 2.7 0 5.307 0 7.82 0 2.52 0.01 4.737 0.03 6.65 0.013 1.92 0.037 3.363 0.07 4.33v0l3.75 1.05-0.75 1.85c-0.867-0.067-1.717-0.1-2.55-0.1-0.833 0-1.85 0-3.05 0v0c-0.9 0-1.65 0.007-2.25 0.02-0.6 0.02-1.133 0.047-1.6 0.08v0c-0.033-0.667-0.09-1.293-0.17-1.88-0.087-0.58-0.163-1.187-0.23-1.82v0c0.033-1.5 0.06-3 0.08-4.5 0.013-1.5 0.02-2.95 0.02-4.35v0c0-0.967 0-1.917 0-2.85 0-0.933-0.017-1.9-0.05-2.9v0c0-1.533-0.023-3.2-0.07-5-0.053-1.8-0.12-3.6-0.2-5.4-0.087-1.8-0.197-3.433-0.33-4.9v0l-4.05-0.65-0.45-2.15c0.567 0 1.35-0.033 2.35-0.1 1-0.067 2.093-0.143 3.28-0.23 1.18-0.08 2.32-0.177 3.42-0.29 1.1-0.12 2.033-0.23 2.8-0.33zM431.15-21.8v0c1.833 0 3.45 0.483 4.85 1.45 1.4 0.967 2.417 2.333 3.05 4.1v0l-1.55 4.25c0-1.167-0.24-2.227-0.72-3.18-0.487-0.947-1.08-1.73-1.78-2.35-0.7-0.613-1.367-0.987-2-1.12v0c-1.333 0.4-2.373 1.317-3.12 2.75-0.753 1.433-1.13 3.083-1.13 4.95v0c0 2.533 0.483 4.417 1.45 5.65 0.967 1.233 2.067 1.85 3.3 1.85v0c1.167 0 2.277-0.633 3.33-1.9 1.047-1.267 1.77-2.933 2.17-5v0l1.55 2.25c-0.9 2.433-2.123 4.45-3.67 6.05-1.553 1.6-3.463 2.4-5.73 2.4v0c-1.5 0-2.957-0.427-4.37-1.28-1.42-0.847-2.58-2.113-3.48-3.8-0.9-1.68-1.35-3.787-1.35-6.32v0c0-2.367 0.467-4.35 1.4-5.95 0.933-1.6 2.11-2.8 3.53-3.6 1.413-0.8 2.837-1.2 4.27-1.2zM475.95-33v0c3.733 0 6.5 0.857 8.3 2.57 1.8 1.72 2.7 3.98 2.7 6.78v0c0 2.133-0.523 4.007-1.57 5.62-1.053 1.62-2.553 2.88-4.5 3.78-1.953 0.9-4.28 1.35-6.98 1.35v0c-0.6 0-1.333-0.05-2.2-0.15-0.867-0.1-1.783-0.25-2.75-0.45v0-3.15c1.1 0.233 2.043 0.427 2.83 0.58 0.78 0.147 1.47 0.22 2.07 0.22v0c0.467 0 0.9-0.027 1.3-0.08 0.4-0.047 0.783-0.103 1.15-0.17v0c1.067-0.7 1.86-1.677 2.38-2.93 0.513-1.247 0.77-2.57 0.77-3.97v0c0-1.2-0.183-2.343-0.55-3.43-0.367-1.08-0.917-1.963-1.65-2.65-0.733-0.68-1.633-1.02-2.7-1.02v0c-0.667 0-1.283 0.04-1.85 0.12-0.567 0.087-1.067 0.163-1.5 0.23v0c0 0.933 0 2.14 0 3.62 0 1.487 0 3.03 0 4.63 0 1.6 0 3.083 0 4.45 0 1.367 0 2.417 0 3.15v0c0 1.133 0 2.04 0 2.72 0 0.687 0 1.257 0 1.71 0 0.447 0 0.91 0 1.39 0 0.487 0 1.103 0 1.85 0 0.753 0 1.763 0 3.03v0l5.5 1.3-0.7 1.9c-1.733-0.1-4.583-0.15-8.55-0.15v0c-1.633 0-3.067 0.017-4.3 0.05-1.233 0.033-2.367 0.067-3.4 0.1v0l-0.75-1.9 4.65-1.05c0.067-1.5 0.117-3.193 0.15-5.08 0.033-1.88 0.06-3.737 0.08-5.57 0.013-1.833 0.02-3.4 0.02-4.7v0c0-1.733-0.007-3.21-0.02-4.43-0.02-1.213-0.047-2.363-0.08-3.45-0.033-1.08-0.083-2.287-0.15-3.62v0l-4.45-1.3 0.55-1.9c1.033 0.033 1.933 0.067 2.7 0.1 0.767 0.033 1.543 0.057 2.33 0.07 0.78 0.02 1.653 0.03 2.62 0.03v0c1.033 0 1.967-0.017 2.8-0.05 0.833-0.033 1.693-0.067 2.58-0.1 0.88-0.033 1.937-0.05 3.17-0.05zM500.45-21.75v0c-0.033 1.933-0.073 3.783-0.12 5.55-0.053 1.767-0.08 3.367-0.08 4.8v0c0 1.233 0.027 2.65 0.08 4.25 0.047 1.6 0.087 3.017 0.12 4.25v0l4 1.05-0.85 1.85c-0.867-0.067-1.74-0.11-2.62-0.13-0.887-0.013-2.213-0.02-3.98-0.02v0c-1.633 0-2.907 0.017-3.82 0.05-0.92 0.033-1.897 0.067-2.93 0.1v0l-0.8-1.85 4.25-1.05c0.067-1.667 0.11-3.117 0.13-4.35 0.013-1.233 0.003-2.583-0.03-4.05v0c0-0.767-0.007-1.45-0.02-2.05-0.02-0.6-0.047-1.277-0.08-2.03-0.033-0.747-0.1-1.703-0.2-2.87v0l-3.55-0.65-0.75-1.9c0.767-0.033 1.76-0.083 2.98-0.15 1.213-0.067 2.537-0.167 3.97-0.3 1.433-0.133 2.867-0.3 4.3-0.5zM496.7-25.45v0c-1.067 0-1.983-0.4-2.75-1.2-0.767-0.8-1.15-1.783-1.15-2.95v0c0-1.1 0.383-2.05 1.15-2.85 0.767-0.8 1.683-1.2 2.75-1.2v0c1.067 0 1.983 0.4 2.75 1.2 0.767 0.8 1.15 1.75 1.15 2.85v0c0 1.167-0.383 2.15-1.15 2.95-0.767 0.8-1.683 1.2-2.75 1.2zM517.1-20.95v0l0.85 1.9-2.3 0.95c1.233 1.833 2.41 3.533 3.53 5.1 1.113 1.567 2.32 3.14 3.62 4.72 1.3 1.587 2.783 3.347 4.45 5.28v0l3.45 1.1-0.65 1.9c-1-0.067-1.917-0.11-2.75-0.13-0.833-0.013-1.833-0.02-3-0.02v0c-1.633 0-2.967 0.007-4 0.02-1.033 0.02-2 0.063-2.9 0.13v0l-0.85-1.9 2.65-0.95c-1.033-1.3-1.973-2.517-2.82-3.65-0.853-1.133-1.687-2.267-2.5-3.4-0.82-1.133-1.703-2.35-2.65-3.65-0.953-1.3-2.03-2.767-3.23-4.4v0l-3.8-1.1 0.6-1.9c1 0.033 2.093 0.067 3.28 0.1 1.18 0.033 2.287 0.05 3.32 0.05v0c2 0 3.9-0.05 5.7-0.15zM516.45-12.35l1.85 2.75c-1.133 1.267-2.157 2.523-3.07 3.77-0.92 1.253-1.647 2.197-2.18 2.83v0l3.1 1.1-0.75 1.9c-1.033-0.067-1.9-0.11-2.6-0.13-0.7-0.013-1.583-0.02-2.65-0.02v0c-1.133 0-2.05 0.007-2.75 0.02-0.7 0.02-1.5 0.063-2.4 0.13v0l-0.8-1.9 4.35-1.1c0.6-0.6 1.333-1.427 2.2-2.48 0.867-1.047 1.793-2.18 2.78-3.4 0.98-1.213 1.953-2.37 2.92-3.47zM518.15-8.6l-1.85-2.75c1.1-1.267 2.11-2.543 3.03-3.83 0.913-1.28 1.62-2.203 2.12-2.77v0l-3.1-1.1 0.75-1.9c0.833 0.033 1.56 0.067 2.18 0.1 0.613 0.033 1.42 0.05 2.42 0.05v0c1.133 0 2.05-0.017 2.75-0.05 0.7-0.033 1.5-0.067 2.4-0.1v0l0.8 1.9-3.8 1.1c-0.667 0.767-1.433 1.69-2.3 2.77-0.867 1.087-1.757 2.197-2.67 3.33-0.92 1.133-1.83 2.217-2.73 3.25zM542.35-21.85v0c1.667 0 3.21 0.367 4.63 1.1 1.413 0.733 2.547 1.84 3.4 3.32 0.847 1.487 1.27 3.347 1.27 5.58v0c-0.733 0.133-1.7 0.25-2.9 0.35-1.2 0.1-2.517 0.173-3.95 0.22-1.433 0.053-2.867 0.08-4.3 0.08v0c-1.067 0-1.983-0.017-2.75-0.05-0.767-0.033-1.283-0.067-1.55-0.1v0-2.4c0.367 0 0.927 0 1.68 0 0.747 0 1.587-0.017 2.52-0.05 0.933-0.033 1.843-0.083 2.73-0.15 0.88-0.067 1.62-0.15 2.22-0.25v0c-0.033-0.7-0.223-1.407-0.57-2.12-0.353-0.72-0.88-1.33-1.58-1.83-0.7-0.5-1.6-0.75-2.7-0.75v0c-0.667 0.633-1.2 1.507-1.6 2.62-0.4 1.12-0.6 2.413-0.6 3.88v0c0 3 0.627 5.207 1.88 6.62 1.247 1.42 2.787 2.13 4.62 2.13v0c1.867 0 3.833-0.667 5.9-2v0l1.1 2.3c-1.433 1.3-2.967 2.233-4.6 2.8-1.633 0.567-3.25 0.85-4.85 0.85v0c-1.867 0-3.607-0.41-5.22-1.23-1.62-0.813-2.92-2.037-3.9-3.67-0.987-1.633-1.48-3.667-1.48-6.1v0c0-2.467 0.51-4.527 1.53-6.18 1.013-1.647 2.33-2.887 3.95-3.72 1.613-0.833 3.32-1.25 5.12-1.25zM564.3-37.25v0c-0.033 5.667-0.04 11.44-0.02 17.32 0.013 5.887 0.07 11.563 0.17 17.03v0l3.95 1.05-0.95 1.85c-0.6-0.033-1.157-0.06-1.67-0.08-0.52-0.013-1.137-0.03-1.85-0.05-0.72-0.013-1.697-0.02-2.93-0.02v0c-1.1 0-2.007 0.007-2.72 0.02-0.72 0.02-1.363 0.037-1.93 0.05-0.567 0.02-1.2 0.047-1.9 0.08v0l-0.95-1.85 3.95-1.05c0.067-3.567 0.11-7.227 0.13-10.98 0.013-3.747-0.003-7.33-0.05-10.75-0.053-3.413-0.147-6.403-0.28-8.97v0l-4.3-0.7-0.5-1.95c0.767-0.067 1.8-0.133 3.1-0.2 1.3-0.067 2.727-0.167 4.28-0.3 1.547-0.133 3.037-0.3 4.47-0.5zM569.95-1.3v0c0.267-1.267 0.493-2.327 0.68-3.18 0.18-0.847 0.337-1.77 0.47-2.77v0h2.5l0.8 3.9c0.433 0.367 0.95 0.65 1.55 0.85 0.6 0.2 1.2 0.3 1.8 0.3v0c0.833 0 1.577-0.2 2.23-0.6 0.647-0.4 0.97-1.017 0.97-1.85v0c0-0.7-0.257-1.277-0.77-1.73-0.52-0.447-1.18-0.847-1.98-1.2-0.8-0.347-1.65-0.697-2.55-1.05-0.9-0.347-1.75-0.787-2.55-1.32-0.8-0.533-1.457-1.2-1.97-2-0.52-0.8-0.78-1.817-0.78-3.05v0c0-1.7 0.417-3.043 1.25-4.03 0.833-0.98 1.927-1.687 3.28-2.12 1.347-0.433 2.77-0.65 4.27-0.65v0c1.167 0 2.383 0.133 3.65 0.4 1.267 0.267 2.417 0.65 3.45 1.15v0c-0.267 1.167-0.507 2.2-0.72 3.1-0.22 0.9-0.413 1.783-0.58 2.65v0l-2.6-0.05-0.65-3.4c-0.6-0.8-1.583-1.2-2.95-1.2v0c-0.733 0-1.407 0.167-2.02 0.5-0.62 0.333-0.93 0.883-0.93 1.65v0c0 0.733 0.267 1.323 0.8 1.77 0.533 0.453 1.227 0.847 2.08 1.18 0.847 0.333 1.753 0.69 2.72 1.07 0.967 0.387 1.877 0.863 2.73 1.43 0.847 0.567 1.537 1.29 2.07 2.17 0.533 0.887 0.8 2.013 0.8 3.38v0c0 1.6-0.433 2.873-1.3 3.82-0.867 0.953-2.017 1.637-3.45 2.05-1.433 0.42-2.983 0.63-4.65 0.63v0c-1.267 0-2.55-0.133-3.85-0.4-1.3-0.267-2.567-0.733-3.8-1.4z" fill="#000000" fill-rule="nonzero" stroke="none" stroke-width="1" stroke-linecap="butt" stroke-linejoin="miter" stroke-miterlimit="10" stroke-dasharray="" stroke-dashoffset="0" font-family="none" font-weight="none" font-size="none" text-anchor="none" style="mix-blend-mode: normal" data-fill-palette-color="secondary" id="text-1"></path></g></g><g transform="matrix(1,0,0,1,29.33176499999999,36.94999698187608)"><svg viewBox="0 0 316.416 39.825416036247844" height="39.825416036247844" width="316.416"><g><svg viewBox="0 0 403.0012681833918 50.72339315502083" height="39.825416036247844" width="316.416"><g><rect width="3.3099044437492866" height="36.886403850069414" x="74.61069242092712" y="6.918494652475708" fill="#000000" opacity="1" stroke-width="0" stroke="transparent" fill-opacity="1" class="rect-qz-0" data-fill-palette-color="primary" rx="1%" id="qz-0" data-palette-color="#000000"></rect></g><g transform="matrix(1,0,0,1,86.58526818339182,7.010251875983343)"><svg viewBox="0 0 316.416 36.702889403054144" height="36.702889403054144" width="316.416"><g id="textblocktransform"><svg viewBox="0 0 316.416 36.702889403054144" height="36.702889403054144" width="316.416" id="textblock"><g><svg viewBox="0 0 316.416 36.702889403054144" height="36.702889403054144" width="316.416"><g transform="matrix(1,0,0,1,0,0)"><svg width="316.416" viewBox="3.75 -37 324.62 37.6" height="36.702889403054144" data-palette-color="#000000"><g class="wordmark-text-0" data-fill-palette-color="primary" id="text-0"><path d="M16.7 0.6L16.7 0.6Q10.65 0.6 7.2-3 3.75-6.6 3.75-13.3L3.75-13.3 3.75-35 8.5-35 8.5-14.05Q8.5-9.05 10.55-6.3 12.6-3.55 16.7-3.55L16.7-3.55Q20.95-3.55 23.05-6.23 25.15-8.9 25.15-14.05L25.15-14.05 25.15-35 29.75-35 29.75-13.5Q29.75-9.1 28.13-5.93 26.5-2.75 23.58-1.07 20.65 0.6 16.7 0.6ZM42 0L37.5 0 37.5-26 41.85-26 41.85-21.65Q43.25-23.75 45.42-25.18 47.6-26.6 50.6-26.6L50.6-26.6Q55-26.6 57.17-23.95 59.35-21.3 59.35-16.95L59.35-16.95 59.35 0 54.85 0 54.85-16.45Q54.85-19.25 53.52-20.95 52.2-22.65 49.85-22.65L49.85-22.65Q47.55-22.65 45.5-21.03 43.45-19.4 42-17.2L42-17.2 42 0ZM78.75 0L74.05 0 63.6-24.8 67.7-26.5 76.55-5.1 85.4-26.5 89.25-24.8 78.75 0ZM104.14 0.6L104.14 0.6Q98.54 0.6 95.27-2.98 91.99-6.55 91.99-13L91.99-13Q91.99-16.9 93.47-19.98 94.94-23.05 97.59-24.83 100.24-26.6 103.74-26.6L103.74-26.6Q107.49-26.6 109.97-24.98 112.44-23.35 113.69-20.6 114.94-17.85 114.94-14.55L114.94-14.55Q114.94-12.8 114.79-11.15L114.79-11.15 96.59-11.15Q97.04-7.5 99.14-5.45 101.24-3.4 104.69-3.4L104.69-3.4Q106.94-3.4 108.74-3.88 110.54-4.35 112.19-5.1L112.19-5.1 113.24-1.25Q111.44-0.45 109.19 0.08 106.94 0.6 104.14 0.6ZM96.54-14.8L96.54-14.8 110.79-14.8Q110.79-18.6 108.89-20.65 106.99-22.7 103.64-22.7L103.64-22.7Q100.74-22.7 98.84-20.68 96.94-18.65 96.54-14.8ZM125.44 0L120.94 0 120.94-26 125.44-26 125.44 0ZM123.19-30.45L123.19-30.45Q121.89-30.45 120.97-31.4 120.04-32.35 120.04-33.6L120.04-33.6Q120.04-35.05 120.89-35.9 121.74-36.75 123.19-36.75L123.19-36.75Q124.49-36.75 125.42-35.83 126.34-34.9 126.34-33.6L126.34-33.6Q126.34-32.2 125.49-31.33 124.64-30.45 123.19-30.45ZM141.34 0.6L141.34 0.6Q139.04 0.6 137.19-0.28 135.34-1.15 134.26-3.1 133.19-5.05 133.19-8.15L133.19-8.15 133.19-37 137.69-37 137.69-8.6Q137.69-5.9 138.81-4.6 139.94-3.3 141.94-3.3L141.94-3.3Q142.89-3.3 143.81-3.53 144.74-3.75 145.39-4.05L145.39-4.05 146.49-0.4Q145.59 0 144.26 0.3 142.94 0.6 141.34 0.6ZM161.14 0.6L161.14 0.6Q155.54 0.6 152.26-2.98 148.99-6.55 148.99-13L148.99-13Q148.99-16.9 150.46-19.98 151.94-23.05 154.59-24.83 157.24-26.6 160.74-26.6L160.74-26.6Q164.49-26.6 166.96-24.98 169.44-23.35 170.69-20.6 171.94-17.85 171.94-14.55L171.94-14.55Q171.94-12.8 171.79-11.15L171.79-11.15 153.59-11.15Q154.04-7.5 156.14-5.45 158.24-3.4 161.69-3.4L161.69-3.4Q163.94-3.4 165.74-3.88 167.54-4.35 169.19-5.1L169.19-5.1 170.24-1.25Q168.44-0.45 166.19 0.08 163.94 0.6 161.14 0.6ZM153.54-14.8L153.54-14.8 167.79-14.8Q167.79-18.6 165.89-20.65 163.99-22.7 160.64-22.7L160.64-22.7Q157.74-22.7 155.84-20.68 153.94-18.65 153.54-14.8ZM187.78 0.6L187.78 0.6Q184.58 0.6 181.93-1.05 179.28-2.7 177.73-5.73 176.18-8.75 176.18-12.85L176.18-12.85Q176.18-16.8 177.76-19.9 179.33-23 181.96-24.8 184.58-26.6 187.73-26.6L187.73-26.6Q190.33-26.6 192.21-25.55 194.08-24.5 195.13-23.4L195.13-23.4 195.13-37 199.63-37 199.63-6.3Q199.63-4.4 200.56-3.83 201.48-3.25 202.58-3.25L202.58-3.25 201.63 0.25Q196.88 0.25 195.83-3.55L195.83-3.55Q194.73-2 192.76-0.7 190.78 0.6 187.78 0.6ZM188.78-3.4L188.78-3.4Q190.63-3.4 192.31-4.28 193.98-5.15 195.13-6.55L195.13-6.55 195.13-19.45Q194.18-20.65 192.48-21.68 190.78-22.7 188.73-22.7L188.73-22.7Q186.33-22.7 184.53-21.4 182.73-20.1 181.76-17.93 180.78-15.75 180.78-13L180.78-13Q180.78-10.25 181.83-8.08 182.88-5.9 184.71-4.65 186.53-3.4 188.78-3.4Z" fill="#000000" data-fill-palette-color="primary"></path><path d="M226.83 0L222.08 0 222.08-34.9Q224.13-35.15 226.6-35.27 229.08-35.4 231.73-35.4L231.73-35.4Q236.08-35.4 239.13-34.02 242.18-32.65 243.78-30.25 245.38-27.85 245.38-24.75L245.38-24.75Q245.38-21 243.53-18.4 241.68-15.8 238.38-14.43 235.08-13.05 230.73-13.05L230.73-13.05Q228.63-13.05 226.83-13.2L226.83-13.2 226.83 0ZM231.33-17L231.33-17Q235.78-17 238.23-19 240.68-21 240.68-24.35L240.68-24.35Q240.68-27.6 238.33-29.5 235.98-31.4 231.63-31.4L231.63-31.4Q230.28-31.4 229.08-31.35 227.88-31.3 226.83-31.2L226.83-31.2 226.83-17.25Q227.63-17.15 228.78-17.07 229.93-17 231.33-17ZM255.13 0L250.63 0 250.63-26 255.13-26 255.13 0ZM252.88-30.45L252.88-30.45Q251.58-30.45 250.65-31.4 249.73-32.35 249.73-33.6L249.73-33.6Q249.73-35.05 250.58-35.9 251.42-36.75 252.88-36.75L252.88-36.75Q254.17-36.75 255.1-35.83 256.03-34.9 256.03-33.6L256.03-33.6Q256.03-32.2 255.17-31.33 254.33-30.45 252.88-30.45ZM283.62-2.45L280.22 0.45 271.47-10.4 262.82 0.35 259.62-2.45 268.87-13.2 259.97-23.5 263.47-26.55 271.52-16.15 279.42-26.35 282.77-23.5 274.12-13.4 283.62-2.45ZM298.52 0.6L298.52 0.6Q292.92 0.6 289.65-2.98 286.37-6.55 286.37-13L286.37-13Q286.37-16.9 287.85-19.98 289.32-23.05 291.97-24.83 294.62-26.6 298.12-26.6L298.12-26.6Q301.87-26.6 304.35-24.98 306.82-23.35 308.07-20.6 309.32-17.85 309.32-14.55L309.32-14.55Q309.32-12.8 309.17-11.15L309.17-11.15 290.97-11.15Q291.42-7.5 293.52-5.45 295.62-3.4 299.07-3.4L299.07-3.4Q301.32-3.4 303.12-3.88 304.92-4.35 306.57-5.1L306.57-5.1 307.62-1.25Q305.82-0.45 303.57 0.08 301.32 0.6 298.52 0.6ZM290.92-14.8L290.92-14.8 305.17-14.8Q305.17-18.6 303.27-20.65 301.37-22.7 298.02-22.7L298.02-22.7Q295.12-22.7 293.22-20.68 291.32-18.65 290.92-14.8ZM323.22 0.6L323.22 0.6Q320.92 0.6 319.07-0.28 317.22-1.15 316.14-3.1 315.07-5.05 315.07-8.15L315.07-8.15 315.07-37 319.57-37 319.57-8.6Q319.57-5.9 320.69-4.6 321.82-3.3 323.82-3.3L323.82-3.3Q324.77-3.3 325.69-3.53 326.62-3.75 327.27-4.05L327.27-4.05 328.37-0.4Q327.47 0 326.14 0.3 324.82 0.6 323.22 0.6Z" fill="#0191da" data-fill-palette-color="accent"></path></g></svg></g></svg></g></svg></g></svg></g><g><svg viewBox="0 0 65.94602110221172 50.72339315502083" height="50.72339315502083" width="65.94602110221172"><g><svg xmlns="http://www.w3.org/2000/svg" xmlns:xlink="http://www.w3.org/1999/xlink" version="1.1" x="0" y="0" viewBox="0 12.052365005634037 100.04043589109646 76.94763499436596" enable-background="new 0 0 100 100" xml:space="preserve" width="65.94602110221172" height="50.72339315502083" class="icon-icon-0" data-fill-palette-color="accent" id="icon-0"><path d="M82 87.352C82 88.262 81.263 89 80.353 89H1.647C0.738 89 0 88.262 0 87.352V29.648C0 28.738 0.738 28 1.647 28h78.705C81.263 28 82 28.738 82 29.648V87.352zM73 37.648C73 36.738 72.263 36 71.353 36H9.647C8.738 36 8 36.738 8 37.648v41.704C8 80.262 8.738 81 9.647 81h61.705C72.263 81 73 80.262 73 79.352V37.648z" fill="#0191da" data-fill-palette-color="accent"></path><g fill="#0191da" data-fill-palette-color="accent"><path d="M96.037 13.591c-0.061-0.905-0.851-1.595-1.756-1.535l-78.103 5.239c-0.904 0.061-1.595 0.667-1.534 1.573L15.001 24h18.906l52.705-3.354c0.903-0.061 1.693 0.722 1.755 1.626l2.757 41.152c0.061 0.905-0.355 1.716-1.259 1.776L86 65.503v8.259l12.64-0.867c0.903-0.06 1.456-0.849 1.396-1.754L96.037 13.591z" fill="#0191da" data-fill-palette-color="accent"></path></g><path d="M15.409 76.418c-0.906 0.001-1.125-0.522-0.485-1.164l10.036-10.096c0.639-0.643 1.843-0.875 2.675-0.516l2.629 1.138c0.832 0.358 2.183 0.337 3.002-0.052l5.786-2.738c0.819-0.389 2.041-1.202 2.715-1.807l9.495-8.518c0.675-0.605 1.786-0.613 2.469-0.018l4.108 3.588c0.684 0.596 1.881 0.707 2.661 0.245l6.153-3.675c0.78-0.461 1.347-0.096 1.347 0.81v21.013c0 0.905-0.67 1.648-1.576 1.651L15.409 76.418z" fill="#0191da" data-fill-palette-color="accent"></path><circle cx="25.297" cy="50.227" r="6.5" fill="#0191da" data-fill-palette-color="accent"></circle></svg></g></svg></g></svg></g></svg></g></svg></g><defs></defs></svg><rect width="375.07953" height="113.72541000000001" fill="none" stroke="none" visibility="hidden"></rect></g></svg></g></svg>